<svg id="Layer_1" data-name="Layer 1" xmlns="http://www.w3.org/2000/svg" viewBox="0 0 49.25 49.25"><defs><style>.cls-1{fill:#1c1c1c;}.cls-2{fill:#fff;}</style></defs><title>b&amp;amp;wLogo</title><rect class="cls-1" width="49.25" height="49.25"/><path class="cls-2" d="M32.21,17.34H28.84V38.26h0a7.06,7.06,0,1,1-14.11,0H11.36a10.42,10.42,0,1,0,20.84,0h0Zm-6.78-6.78a6.69,6.69,0,0,0-6.14,4.08A5.34,5.34,0,0,0,19,17c0,.12,0,.24.06.37h0l0,.21a12.42,12.42,0,0,0,.74,2.36c1.42,3.38,4.19,9.74,7.91,17V30.3c-2.71-5.69-4.58-10.19-5.34-12a5,5,0,0,1-.3-1.36,1.52,1.52,0,0,1,.05-.41,3.4,3.4,0,0,1,6.7.84h3.36A6.78,6.78,0,0,0,25.43,10.56Zm18.78,6.78L33.32,41.51v6.28L47.89,17.34Z" transform="translate(-5 -5)"/></svg>