<svg viewBox="0 0 512 512.0015" xmlns="http://www.w3.org/2000/svg"><path d="m30.753906 481.246094c41.003906 41.007812 107.488282 41.007812 148.492188 0l115.707031-115.707032c-40.871094 4.742188-65.515625-9.03125-73.753906-11.097656l-84.378907 84.378906c-17.546874 17.546876-46.09375 17.546876-63.640624 0-17.546876-17.542968-17.546876-46.09375 0-63.636718 3.238281-3.242188 136.507812-136.511719 132.296874-132.296875 17.117188-17.121094 46.078126-17.558594 63.636719 0 1.421875 1.421875 2.492188 3.035156 3.679688 4.585937 6.328125-.605468 12.367187.582032 17.535156-4.585937l30.554687-30.554688c-2.960937-4.042969-5.683593-8.210937-9.34375-11.871093-40.671874-40.675782-108.621093-39.871094-148.492187 0l-132.292969 132.292968c-41.003906 41.003906-41.003906 107.488282 0 148.492188zm0 0"/><path d="m481.246094 30.753906c-41.003906-41.003906-107.488282-41.003906-148.492188 0l-110.691406 110.691406c40.871094-4.742187 65.515625 9.035157 73.753906 11.097657l79.367188-79.363281c17.546875-17.546876 46.089844-17.546876 63.636718 0 17.546876 17.546874 17.546876 46.09375 0 63.640624l-102.878906 102.878907-24.402344 24.398437c-17.117187 17.125-46.078124 17.5625-63.636718 0-1.421875-1.417968-2.492188-3.03125-3.679688-4.582031-6.328125.605469-12.367187-.585937-17.535156 4.582031l-30.554688 30.554688c2.960938 4.042968 5.683594 8.214844 9.34375 11.875 40.671876 40.675781 108.621094 39.867187 148.492188 0l127.277344-127.28125c41.003906-41.003906 41.003906-107.488282 0-148.492188zm0 0"/></svg>